<?xml version="1.0" encoding="UTF-8" ?>
<!DOCTYPE svg PUBLIC "-//W3C//DTD SVG 1.1//EN" "http://www.w3.org/Graphics/SVG/1.1/DTD/svg11.dtd">
<svg width="60pt" height="60pt" viewBox="0 0 60 60" version="1.1" xmlns="http://www.w3.org/2000/svg">
<g id="#b3b3b3ff">
<path fill="#b3b3b3" opacity="1.00" d=" M 23.88 5.82 C 27.89 4.90 32.05 4.94 36.02 6.01 C 36.31 7.59 36.63 9.16 36.95 10.73 C 35.83 11.78 34.70 12.80 33.56 13.82 C 34.44 16.10 35.31 18.39 36.38 20.59 C 36.15 18.28 35.22 16.05 35.25 13.72 C 37.61 12.57 39.24 10.58 40.44 8.30 C 45.16 10.50 48.99 14.82 49.41 20.16 C 49.65 25.53 50.57 31.03 49.28 36.33 C 48.90 38.79 49.96 41.42 48.78 43.77 C 47.78 45.49 45.75 45.99 44.02 46.63 C 43.01 45.52 41.80 43.72 40.11 45.00 C 38.70 47.40 40.15 50.32 39.78 52.94 C 38.35 55.63 34.76 55.07 32.26 54.69 C 28.03 53.39 23.05 56.77 19.51 53.00 C 20.13 50.07 21.06 46.98 19.66 44.12 C 17.94 44.22 16.34 44.92 15.73 46.67 C 12.71 46.03 8.92 43.65 9.93 40.03 C 12.41 33.13 8.09 26.05 10.00 19.10 C 10.91 15.83 13.01 13.08 15.18 10.53 C 14.68 13.86 13.98 17.16 13.27 20.46 C 15.40 19.73 17.54 19.03 19.69 18.33 C 22.22 21.00 24.60 23.80 27.05 26.55 C 28.27 25.21 29.43 23.80 30.84 22.65 C 32.73 22.58 34.55 23.23 36.43 23.34 C 34.45 22.65 32.45 22.01 30.51 21.21 C 29.28 22.32 28.07 23.45 26.86 24.58 C 23.79 21.47 21.68 16.38 16.55 16.62 C 18.93 12.98 21.39 9.39 23.88 5.82 M 17.29 29.55 C 14.75 31.77 15.41 34.88 16.40 37.68 C 20.64 39.48 24.53 36.70 27.28 33.69 C 23.63 33.24 19.97 32.22 17.29 29.55 M 32.80 33.71 C 35.57 36.44 39.50 39.84 43.57 37.51 C 45.12 34.92 45.12 31.66 42.79 29.53 C 40.13 32.22 36.45 33.24 32.80 33.71 M 28.19 46.05 C 28.84 44.88 29.47 43.70 30.07 42.50 C 30.63 43.69 31.21 44.86 31.81 46.04 C 34.64 42.95 30.96 39.30 30.03 36.13 C 29.16 39.33 25.52 42.88 28.19 46.05 Z" />
</g>
</svg>
