<?xml version="1.0" encoding="UTF-8" ?>
<!DOCTYPE svg PUBLIC "-//W3C//DTD SVG 1.1//EN" "http://www.w3.org/Graphics/SVG/1.1/DTD/svg11.dtd">
<svg width="60pt" height="60pt" viewBox="0 0 60 60" version="1.1" xmlns="http://www.w3.org/2000/svg">
<g id="#b3b3b3ff">
<path fill="#b3b3b3" opacity="1.00" d=" M 28.18 5.19 C 32.23 5.14 36.73 5.13 40.00 7.92 C 43.27 10.18 43.99 15.28 41.26 18.24 C 39.13 21.00 35.58 21.82 32.32 22.33 C 32.35 23.91 32.36 25.50 32.38 27.08 C 38.84 24.00 45.35 21.00 51.83 17.95 C 52.45 19.21 53.08 20.48 53.70 21.74 C 47.57 24.69 41.31 27.37 35.24 30.42 C 41.43 33.24 47.54 36.21 53.74 38.99 C 53.06 40.29 52.36 41.58 51.64 42.86 C 45.31 39.60 38.77 36.78 32.36 33.69 C 32.35 40.79 32.37 47.88 32.35 54.97 C 30.96 54.96 29.57 54.94 28.18 54.93 C 28.19 47.86 28.18 40.78 28.19 33.71 C 21.64 36.70 15.09 39.71 8.62 42.88 C 8.00 41.59 7.38 40.29 6.77 39.00 C 12.94 36.04 19.26 33.39 25.31 30.17 C 19.00 27.76 13.07 24.51 6.88 21.84 C 7.42 20.51 7.97 19.19 8.53 17.87 C 15.05 21.00 21.60 24.06 28.18 27.04 C 28.18 19.76 28.18 12.48 28.18 5.19 M 32.40 18.04 C 35.25 17.81 37.82 16.43 39.21 13.88 C 38.10 11.01 35.28 9.70 32.40 9.28 C 32.34 12.20 32.34 15.12 32.40 18.04 Z" />
<path fill="#b3b3b3" opacity="1.00" d=" M 9.98 15.39 C 13.91 10.58 19.26 7.05 25.32 5.60 C 25.34 7.06 25.34 8.51 25.34 9.97 C 20.89 11.26 16.88 13.79 13.94 17.38 C 12.62 16.72 11.30 16.06 9.98 15.39 Z" />
<path fill="#b3b3b3" opacity="1.00" d=" M 6.09 24.41 C 7.33 25.04 8.57 25.67 9.82 26.29 C 9.55 28.98 9.55 31.67 9.85 34.35 C 8.60 34.95 7.35 35.55 6.10 36.16 C 4.92 32.32 4.86 28.25 6.09 24.41 Z" />
<path fill="#b3b3b3" opacity="1.00" d=" M 50.57 26.21 C 51.84 25.58 53.11 24.96 54.39 24.33 C 55.24 28.25 55.27 32.33 54.29 36.22 C 53.02 35.59 51.74 34.97 50.46 34.34 C 51.08 31.66 51.09 28.91 50.57 26.21 Z" />
<path fill="#b3b3b3" opacity="1.00" d=" M 10.11 44.96 C 11.45 44.40 12.78 43.82 14.11 43.24 C 16.80 46.25 20.16 48.64 24.01 49.92 C 26.46 50.20 24.90 53.20 25.36 54.69 C 19.32 53.34 13.92 49.83 10.11 44.96 Z" />
<path fill="#b3b3b3" opacity="1.00" d=" M 45.43 44.17 C 46.73 42.41 48.74 44.64 50.25 45.01 C 46.54 49.87 41.16 53.26 35.22 54.67 C 35.20 53.23 35.19 51.79 35.19 50.36 C 39.07 49.19 42.63 47.13 45.43 44.17 Z" />
</g>
</svg>
