<?xml version="1.0" encoding="UTF-8" ?>
<!DOCTYPE svg PUBLIC "-//W3C//DTD SVG 1.1//EN" "http://www.w3.org/Graphics/SVG/1.1/DTD/svg11.dtd">
<svg width="60pt" height="60pt" viewBox="0 0 60 60" version="1.1" xmlns="http://www.w3.org/2000/svg">
<g id="#b3b3b3ff">
<path fill="#b3b3b3" opacity="1.00" d=" M 26.93 6.07 C 28.33 5.62 29.84 4.63 31.32 5.38 C 37.38 7.75 43.53 9.97 49.42 12.76 C 50.36 20.09 50.12 27.96 47.07 34.85 C 43.71 42.00 37.33 47.39 30.05 50.27 C 21.90 46.96 14.70 40.51 12.01 31.96 C 9.90 26.25 10.32 20.06 10.44 14.09 C 10.15 12.57 11.75 12.26 12.79 11.75 C 17.49 9.82 22.22 7.97 26.93 6.07 M 28.58 13.40 C 28.53 13.94 28.43 15.04 28.38 15.59 C 23.30 16.83 19.29 20.75 18.14 25.89 C 17.62 25.90 16.59 25.90 16.07 25.90 C 16.07 26.70 16.06 28.29 16.06 29.09 C 16.58 29.09 17.62 29.11 18.15 29.11 C 19.30 34.26 23.30 38.17 28.39 39.42 C 28.44 39.96 28.53 41.06 28.58 41.61 C 29.56 41.63 30.53 41.64 31.51 41.66 C 31.61 41.08 31.81 39.92 31.91 39.34 C 34.72 38.32 37.75 37.15 39.47 34.52 C 41.10 32.45 41.27 29.15 44.19 28.33 C 44.19 27.92 44.19 27.08 44.19 26.67 C 41.28 25.86 41.11 22.58 39.49 20.51 C 37.78 17.87 34.74 16.68 31.91 15.66 C 31.81 15.08 31.61 13.91 31.50 13.33 C 30.53 13.35 29.55 13.37 28.58 13.40 Z" />
<path fill="#b3b3b3" opacity="1.00" d=" M 32.72 18.97 C 35.27 20.49 37.34 22.63 38.83 25.21 C 38.17 25.54 36.84 26.19 36.18 26.52 C 36.18 27.01 36.17 27.98 36.16 28.46 C 36.83 28.79 38.16 29.46 38.83 29.80 C 37.35 32.37 35.26 34.49 32.73 36.03 C 31.79 34.82 31.06 32.84 29.16 33.72 C 28.78 34.30 28.00 35.47 27.62 36.05 C 25.09 34.58 22.67 32.67 21.71 29.79 C 22.27 29.40 23.39 28.64 23.94 28.25 C 23.94 27.88 23.94 27.12 23.94 26.74 C 23.38 26.36 22.26 25.59 21.70 25.20 C 22.68 22.34 25.09 20.42 27.62 18.95 C 28.43 22.26 31.78 21.91 32.72 18.97 M 28.58 25.66 C 28.40 26.96 28.43 28.27 28.42 29.57 C 29.88 29.12 32.67 29.42 31.84 27.05 C 32.22 25.20 29.65 25.74 28.58 25.66 Z" />
<path fill="#b3b3b3" opacity="1.00" d=" M 4.88 28.15 C 8.41 27.64 10.44 30.63 11.52 33.54 C 7.83 34.29 5.50 31.49 4.88 28.15 Z" />
<path fill="#b3b3b3" opacity="1.00" d=" M 48.55 33.47 C 49.80 30.67 51.74 27.70 55.26 28.07 C 54.41 29.86 54.16 32.37 52.10 33.24 C 51.22 33.30 49.44 33.42 48.55 33.47 Z" />
<path fill="#b3b3b3" opacity="1.00" d=" M 6.35 35.74 C 9.60 35.74 12.35 37.29 13.94 40.11 C 10.36 41.59 7.08 39.31 6.35 35.74 Z" />
<path fill="#b3b3b3" opacity="1.00" d=" M 46.22 40.15 C 47.77 37.26 50.71 35.36 54.05 36.39 C 52.53 39.36 49.72 41.53 46.22 40.15 Z" />
<path fill="#b3b3b3" opacity="1.00" d=" M 9.79 43.96 C 10.64 43.60 12.33 42.88 13.18 42.52 C 14.96 43.26 16.68 44.11 18.37 45.05 C 15.58 47.54 11.91 46.88 9.79 43.96 Z" />
<path fill="#b3b3b3" opacity="1.00" d=" M 41.86 45.04 C 43.48 44.13 45.14 43.29 46.84 42.54 C 47.72 42.88 49.49 43.58 50.37 43.93 C 49.23 44.85 48.26 46.11 46.84 46.60 C 44.99 47.18 43.43 45.74 41.86 45.04 Z" />
<path fill="#b3b3b3" opacity="1.00" d=" M 16.27 50.82 C 15.71 47.04 21.38 48.34 23.65 48.59 C 22.43 51.56 18.98 52.57 16.27 50.82 Z" />
<path fill="#b3b3b3" opacity="1.00" d=" M 36.42 48.66 C 38.86 48.27 41.55 47.69 43.82 49.02 C 44.68 51.40 41.79 51.72 40.11 51.66 C 38.34 51.59 37.54 49.75 36.42 48.66 Z" />
<path fill="#b3b3b3" opacity="1.00" d=" M 22.46 54.51 C 24.00 52.50 26.50 50.02 29.17 51.10 C 30.25 55.06 25.03 55.38 22.46 54.51 Z" />
<path fill="#b3b3b3" opacity="1.00" d=" M 31.12 51.10 C 33.86 50.06 36.16 52.54 37.72 54.44 C 35.15 55.09 31.69 55.39 30.51 52.35 C 30.66 52.04 30.96 51.41 31.12 51.10 Z" />
</g>
</svg>
