<?xml version="1.0" encoding="UTF-8" ?>
<!DOCTYPE svg PUBLIC "-//W3C//DTD SVG 1.1//EN" "http://www.w3.org/Graphics/SVG/1.1/DTD/svg11.dtd">
<svg width="60pt" height="60pt" viewBox="0 0 60 60" version="1.1" xmlns="http://www.w3.org/2000/svg">
<g id="#b3b3b3ff">
<path fill="#b3b3b3" opacity="1.00" d=" M 27.97 4.96 C 33.48 7.18 37.83 11.48 40.74 16.58 C 41.05 16.05 41.66 14.99 41.97 14.46 C 45.12 19.58 47.63 25.18 52.12 29.34 C 52.32 33.69 52.83 38.14 55.03 41.99 C 54.31 41.83 52.89 41.49 52.18 41.33 C 52.31 42.54 52.43 43.75 52.55 44.97 C 48.15 46.70 49.87 53.16 45.73 55.46 C 45.87 54.54 46.14 52.71 46.28 51.79 C 44.78 53.09 43.39 54.83 41.24 54.89 C 42.15 53.34 43.13 51.84 44.10 50.33 C 39.38 51.69 34.72 53.20 30.13 54.94 C 31.42 53.30 32.78 51.71 34.06 50.06 C 30.55 51.50 27.08 53.04 23.71 54.78 C 24.27 53.95 25.40 52.29 25.96 51.45 C 21.82 52.56 17.02 54.39 12.98 52.06 C 19.88 50.44 26.01 45.63 28.57 38.92 C 27.56 37.59 26.84 35.35 24.89 35.24 C 21.18 35.89 17.34 36.56 14.05 38.50 C 10.69 36.27 6.33 34.73 4.94 30.56 C 8.53 28.76 12.01 26.76 15.56 24.89 C 15.28 24.36 14.72 23.30 14.44 22.76 C 19.51 20.54 24.52 18.19 29.69 16.20 C 29.60 12.41 30.29 8.29 27.97 4.96 M 31.59 9.50 C 31.59 11.54 31.60 13.58 31.58 15.62 C 33.81 16.44 36.15 16.94 38.53 16.88 C 36.48 14.19 34.03 11.84 31.59 9.50 M 21.84 23.43 C 22.37 25.52 24.62 25.45 26.30 25.92 C 26.50 23.53 28.68 22.26 30.18 20.68 C 27.43 21.69 24.65 22.61 21.84 23.43 M 43.03 29.58 C 42.30 29.84 40.84 30.36 40.11 30.62 C 40.81 31.21 41.51 31.80 42.21 32.40 C 40.39 32.55 36.75 32.87 34.93 33.03 C 38.77 33.63 42.69 34.03 46.34 35.47 C 45.15 34.01 43.96 32.55 42.79 31.07 C 43.50 30.85 44.91 30.42 45.62 30.20 C 44.18 28.09 42.86 25.90 41.44 23.77 C 41.67 25.79 42.63 27.61 43.03 29.58 Z" />
<path fill="#b3b3b3" opacity="1.00" d=" M 23.91 10.29 C 26.48 11.01 29.25 11.94 29.53 15.06 C 28.92 15.31 27.72 15.81 27.11 16.06 C 26.23 14.03 25.10 12.14 23.91 10.29 Z" />
</g>
</svg>
