<?xml version="1.0" encoding="UTF-8" ?>
<!DOCTYPE svg PUBLIC "-//W3C//DTD SVG 1.1//EN" "http://www.w3.org/Graphics/SVG/1.1/DTD/svg11.dtd">
<svg width="60pt" height="60pt" viewBox="0 0 60 60" version="1.1" xmlns="http://www.w3.org/2000/svg">
<g id="#b3b3b3ff">
<path fill="#b3b3b3" opacity="1.00" d=" M 18.40 5.33 C 22.55 4.89 27.05 5.05 30.67 7.36 C 35.44 10.45 40.78 12.43 46.05 14.48 C 45.61 15.09 44.73 16.32 44.29 16.93 C 48.17 18.01 52.94 19.13 54.78 23.16 C 55.50 27.64 53.45 32.00 51.61 35.97 C 50.98 33.88 51.79 30.45 48.93 29.89 C 44.74 28.53 40.45 27.31 36.05 26.88 C 32.06 27.77 31.47 32.65 31.74 36.04 C 31.89 41.82 36.38 45.97 40.39 49.53 C 36.44 49.37 32.87 47.67 29.46 45.83 C 30.14 49.16 31.61 52.24 33.87 54.78 C 31.61 54.51 29.34 54.51 27.06 54.54 C 20.86 53.54 16.07 48.96 12.42 44.13 C 12.47 45.12 12.58 47.11 12.63 48.11 C 9.48 42.80 7.48 36.74 8.11 30.49 C 7.35 32.09 6.75 33.75 6.03 35.36 C 4.32 29.42 5.02 22.99 7.42 17.34 C 8.82 14.27 11.84 12.44 14.27 10.27 C 12.24 11.00 10.34 12.08 8.32 12.82 C 11.12 9.70 14.67 7.30 18.76 6.31 L 18.40 5.33 M 27.13 16.08 C 31.93 16.72 36.87 17.85 40.33 21.51 C 41.79 21.12 43.24 20.70 44.69 20.28 C 44.49 19.81 44.09 18.86 43.89 18.38 C 42.56 17.95 41.25 17.49 39.93 17.03 L 40.02 18.37 C 40.97 18.94 41.92 19.51 42.76 20.25 C 39.84 20.66 37.92 18.87 37.45 16.20 C 34.04 15.52 30.56 15.76 27.13 16.08 Z" />
</g>
</svg>
