<?xml version="1.0" encoding="UTF-8" ?>
<!DOCTYPE svg PUBLIC "-//W3C//DTD SVG 1.1//EN" "http://www.w3.org/Graphics/SVG/1.1/DTD/svg11.dtd">
<svg width="60pt" height="60pt" viewBox="0 0 60 60" version="1.1" xmlns="http://www.w3.org/2000/svg">
<g id="#b3b3b3ff">
<path fill="#b3b3b3" opacity="1.00" d=" M 4.91 27.80 C 4.92 19.14 10.00 11.15 17.44 6.89 C 18.36 8.44 19.31 9.97 20.19 11.54 C 26.20 8.17 33.94 8.20 39.96 11.53 C 40.83 9.96 41.73 8.42 42.63 6.87 C 49.99 11.15 55.34 19.11 55.07 27.81 C 53.38 27.82 51.68 27.84 49.99 27.85 C 50.25 34.87 45.92 41.27 40.07 44.81 C 40.94 46.17 41.79 47.54 42.64 48.92 C 34.86 53.03 25.23 53.04 17.47 48.90 C 18.31 47.51 19.18 46.14 20.06 44.78 C 14.08 41.32 10.01 34.83 10.03 27.86 C 8.32 27.84 6.62 27.82 4.91 27.80 M 20.82 12.38 C 22.48 15.48 24.40 18.43 26.29 21.40 C 24.18 22.99 22.77 25.23 22.33 27.84 C 18.69 27.85 15.05 27.84 11.41 27.83 C 11.17 34.40 15.19 40.21 20.43 43.81 C 22.45 40.68 24.27 37.42 26.28 34.29 C 28.75 35.42 31.41 35.29 33.90 34.33 C 35.82 37.50 37.70 40.70 39.67 43.85 C 44.97 40.24 48.82 34.42 48.79 27.85 C 45.12 27.83 41.46 27.84 37.79 27.84 C 37.38 25.26 36.07 22.95 33.81 21.55 C 35.58 18.44 37.77 15.56 39.22 12.27 C 33.39 9.66 26.60 9.59 20.82 12.38 Z" />
<path fill="#b3b3b3" opacity="1.00" d=" M 27.50 23.70 C 30.95 21.58 35.93 24.87 35.02 28.88 C 34.22 32.52 29.29 33.99 26.61 31.43 C 24.10 29.39 24.73 25.18 27.50 23.70 Z" />
</g>
</svg>
